{"title":"Taken 2008 avi ac3 ENG Pro2kon (TG-Team) release[ExtraTorrent]","uid":5486235,"size":1575110158,"categoryP":"video","categoryS":"movies","magnet":"?xt=urn:btih:85fb0e5c8e144441bd122c9bd7966a5f30e94f91&amp;dn=Taken+2008+avi+ac3+ENG+Pro2kon+%28TG-Team%29+release%5BExtraTorrent%5D&amp;tr=udp%3A%2F%2Ftracker.openbittorrent.com%3A80&amp;tr=udp%3A%2F%2Fopen.demonii.com%3A1337&amp;tr=udp%3A%2F%2Ftracker.coppersurfer.tk%3A6969&amp;tr=udp%3A%2F%2Fexodus.desync.com%3A6969","seeders":0,"leechers":1,"uploader":"raymondhome","files":-1,"time":1270734779,"description":"Love for All and Sharing is the first step to solving all the problems of humanity.\n\nWebsites I want to share.\n\n    &lt;a href=&quot;\nhttp://www.shareintl.org/&quot; rel=&quot;nofollow&quot; target=&quot;_NEW&quot;&gt;\nhttp://www.shareintl.org/&lt;/a&gt;\n\n    &lt;a href=&quot;\nhttp://www.lightmiddleway.com&quot; rel=&quot;nofollow&quot; target=&quot;_NEW&quot;&gt;\nhttp://www.lightmiddleway.com&lt;/a&gt;\n\n\nThank you very much\n\nNo credit for me...credit to EVERYONE for sharing\n &lt;a href=&quot;\nhttp://thepiratebay.se/user/raymondhome/&quot; rel=&quot;nofollow&quot; target=&quot;_NEW&quot;&gt;\nhttp://thepiratebay.se/user/raymondhome/&lt;/a&gt;\n\nPLOT\nA former spy relies on his old skills to save his estranged daughter, who has been forced into the slave trade.\n\nIMDb RATING: 7.9/10 (100,487 votes)\n\nFormat : AVI\nFormat/Info : Audio Video Interleave\nFile size : 1.46 GiB\nDuration : 1h 30mn\nOverall bit rate : 2 306 Kbps\nWriting application : VirtualDubMod 1.5.4.1 (build 2178/release)\nWriting library : VirtualDubMod build 2178/release\nVideo\nID : 0\nFormat : MPEG-4 Visual\nFormat profile : Simple@L0\nFormat settings, BVOP : No\nFormat settings, QPel : No\nFormat settings, GMC : No warppoints\nFormat settings, Matrix : Default (H.263)\nCodec ID : XVID\nCodec ID/Hint : XviD\nDuration : 1h 30mn\nBit rate : 1 851 Kbps\nWidth : 720 pixels\nHeight : 320 pixels\nDisplay aspect ratio : 2.25:1\nFrame rate : 23.976 fps\nResolution : 8 bits\nColorimetry : 4:2:0\nScan type : Progressive\nBits/(Pixel*Frame) : 0.335\nStream size : 1.18 GiB (80%)\nWriting library : XviD 1.2.0.dev47 (UTC 2006-11-01)\nAudio\nID : 1\nFormat : AC-3\nFormat/Info : Audio Coding 3\nCodec ID : 2000\nDuration : 1h 30mn\nBit rate mode : Constant\nBit rate : 448 Kbps\nChannel(s) : 6 channels\nChannel positions : Front: L C R, Surround: L R, LFE\nSampling rate : 48.0 KHz\nStream size : 291 MiB (19%)\nAlignment : Split accross interleaves\nInterleave, duration : 83 ms (2.00 video frames)\nInterleave, preload duration : 500 ms\nLanguage : English\n\ncredit Pro2kon BIG BIG BIG TIME &amp; to all the people who made it possible for me to share this with everyone\n\n*****help what we can with haiti or any other in need...the world is ONE big family*****","torrent":{"xt":"urn:btih:85fb0e5c8e144441bd122c9bd7966a5f30e94f91","amp;dn":"Taken+2008+avi+ac3+ENG+Pro2kon+%28TG-Team%29+release%5BExtraTorrent%5D","amp;tr":["udp%3A%2F%2Ftracker.openbittorrent.com%3A80","udp%3A%2F%2Fopen.demonii.com%3A1337","udp%3A%2F%2Ftracker.coppersurfer.tk%3A6969","udp%3A%2F%2Fexodus.desync.com%3A6969"],"infoHash":"85fb0e5c8e144441bd122c9bd7966a5f30e94f91","infoHashBuffer":{"type":"Buffer","data":[133,251,14,92,142,20,68,65,189,18,44,155,215,150,106,95,48,233,79,145]},"announce":[],"urlList":[]}}